<svg height="512pt" viewBox="0 0 512.00003 512" width="512pt" xmlns="http://www.w3.org/2000/svg"><path d="m512 97.101562v8.828126h-512v-8.828126c-.015625-25.753906 10.210938-50.460937 28.425781-68.675781 18.214844-18.214843 42.921875-28.441406 68.675781-28.425781h317.796876c25.757812-.015625 50.460937 10.210938 68.675781 28.425781 18.214843 18.214844 28.441406 42.921875 28.425781 68.675781zm0 0" fill="#e57e25"/><path d="m61.792969 247.171875-61.792969-141.242187 255.699219-13.238282 256.300781 13.238282-61.792969 141.242187zm0 0" fill="#805333"/><path d="m99.035156 248.832031 28.691406-22.667969 17.371094 12.886719 7.179688 24.945313zm0 0" fill="#802f34"/><path d="m308.964844 247.171875h184.144531c4.882813.003906 9.546875 2.027344 12.890625 5.585937 3.34375 3.5625 5.066406 8.34375 4.765625 13.21875l-15.363281 229.515626c-.601563 9.265624-8.28125 16.480468-17.566406 16.507812h-443.671876c-9.285156-.027344-16.964843-7.242188-17.566406-16.507812l-15.363281-229.515626c-.300781-4.875 1.425781-9.65625 4.765625-13.21875 3.34375-3.558593 8.007812-5.582031 12.890625-5.585937zm0 0" fill="#f29c1f"/><path d="m212.234375 258.578125-8.671875-49.433594-14.652344-35.152343c19.136719-4.203126 38.671875-6.304688 58.261719-6.269532 11.570313-.023437 23.125.683594 34.605469 2.121094l24.714844 88.734375zm0 0" fill="#f3d55b"/><path d="m186.96875 218.746094-5.296875 28.425781h-42.726563l-9.445312-8.03125v-.089844l5.5625-29.925781 28.777344-10.152344 23.039062 19.773438zm0 0" fill="#cc4b4c"/><path d="m320 177.082031.089844-.355469.96875.621094zm0 0" fill="#804537"/><path d="m273.65625 300.136719c0 9.75-7.90625 17.65625-17.65625 17.65625s-17.65625-7.90625-17.65625-17.65625 7.90625-17.652344 17.65625-17.652344 17.65625 7.902344 17.65625 17.652344zm0 0" fill="#2c2f38"/><path d="m203.035156 247.171875v70.621094c0 29.253906 23.710938 52.964843 52.964844 52.964843s52.964844-23.710937 52.964844-52.964843v-70.621094zm52.964844 70.621094c-9.75 0-17.65625-7.90625-17.65625-17.65625s7.90625-17.652344 17.65625-17.652344 17.65625 7.902344 17.65625 17.652344c-.03125 9.738281-7.917969 17.628906-17.65625 17.65625zm0 0" fill="#f0c419"/><path d="m216.628906 353.101562h-156.511718l-2.914063-43.519531c-.171875-2.445312.683594-4.851562 2.355469-6.644531 1.675781-1.792969 4.019531-2.804688 6.472656-2.800781h137.003906v17.65625c-.03125 13.054687 4.820313 25.648437 13.59375 35.308593zm0 0" fill="#af8066"/><path d="m451.882812 353.101562-3.53125 52.96875h-384.703124l-3.53125-52.96875h156.511718c10.003906 11.234376 24.328125 17.65625 39.371094 17.65625s29.367188-6.421874 39.371094-17.65625zm0 0" fill="#805333"/><path d="m448.351562 406.070312-3 44.753907c-.324218 4.632812-4.183593 8.222656-8.828124 8.210937h-361.046876c-4.644531.011719-8.503906-3.578125-8.828124-8.210937l-3-44.753907zm0 0" fill="#af8066"/><path d="m454.796875 309.582031-2.914063 43.519531h-156.511718c8.773437-9.660156 13.625-22.253906 13.59375-35.308593v-17.65625h137.003906c2.453125-.003907 4.796875 1.007812 6.472656 2.800781 1.671875 1.792969 2.527344 4.199219 2.355469 6.644531zm0 0" fill="#af8066"/><path d="m150.070312 0c-36.988281 0-69.472656 11.828125-88.367187 35.308594-8.273437 10.203125-13.773437 22.363281-15.976563 35.3125-1.082031 5.820312-1.613281 11.734375-1.589843 17.65625v17.652344h-44.136719v-8.828126c-.015625-25.753906 10.210938-50.460937 28.425781-68.675781 18.214844-18.214843 42.921875-28.441406 68.675781-28.425781zm0 0" fill="#f0c419"/><path d="m512 97.101562v8.828126h-44.136719v-17.652344c.023438-5.921875-.507812-11.835938-1.589843-17.65625-2.203126-12.949219-7.703126-25.109375-15.976563-35.3125-18.894531-23.480469-51.378906-35.308594-88.367187-35.308594h52.96875c25.757812-.015625 50.460937 10.210938 68.675781 28.425781 18.214843 18.214844 28.441406 42.921875 28.425781 68.675781zm0 0" fill="#f0c419"/><path d="m467.863281 88.277344v17.652344h-423.726562v-17.652344c-.023438-5.921875.507812-11.835938 1.589843-17.65625h420.546876c1.082031 5.820312 1.613281 11.734375 1.589843 17.65625zm0 0" fill="#cb8252"/><path d="m466.273438 70.621094h-420.546876c2.203126-12.949219 7.703126-25.109375 15.976563-35.3125h388.59375c8.273437 10.203125 13.773437 22.363281 15.976563 35.3125zm0 0" fill="#af8066"/><path d="m256 344.277344c-4.875 0-8.828125-3.953125-8.828125-8.828125v-17.65625c0-4.875 3.953125-8.828125 8.828125-8.828125s8.828125 3.953125 8.828125 8.828125v17.65625c0 4.875-3.953125 8.828125-8.828125 8.828125zm0 0" fill="#2c2f38"/><path d="m428.226562 240.640625-40.605468-24.011719-11.035156-42.992187 6.796874 3.972656 33.71875 19.953125zm0 0" fill="#e64c3c"/><path d="m362.992188 165.605469-42.902344 11.121093-40.609375-24.007812 42.992187-11.035156 33.808594 19.949218zm0 0" fill="#cc4b4c"/><path d="m387.621094 216.628906-66.386719-39.195312-.175781-.085938-.96875-.621094 42.902344-11.121093h.085937l13.507813 8.03125zm0 0" fill="#fb7b76"/><path d="m320.089844 176.726562-.089844.355469-13.507812 70.089844h-14.476563l-10.238281-77.328125-2.296875-17.125zm0 0" fill="#ff5364"/><path d="m387.621094 216.628906-36.722656 30.542969h-44.40625l13.507812-70.089844 1.058594.265625.175781.085938zm0 0" fill="#cc4b4c"/><path d="m428.226562 240.640625-16.773437 6.53125h-60.554687l36.722656-30.542969zm0 0" fill="#802f34"/><path d="m225.457031 205.152344-7.769531 42.019531h-36.015625l5.296875-28.425781zm0 0" fill="#802f34"/><path d="m225.457031 205.152344-38.488281 13.59375h-.089844l-23.039062-19.773438 7.414062-40.074218 17.65625 15.09375zm0 0" fill="#e64c3c"/><path d="m171.253906 158.898438-7.414062 40.074218-28.777344 10.152344-30.984375-26.480469zm0 0" fill="#fb7b76"/><path d="m135.0625 209.125-5.5625 29.925781-22.949219 8.121094h-14.390625l6.089844-33.015625 5.828125-31.511719zm0 0" fill="#ff5364"/></svg>