<svg width="223" height="58" xmlns="http://www.w3.org/2000/svg">
    <defs>
        <linearGradient x1="100%" y1="50%" x2="50%" y2="50%" id="a">
            <stop stop-color="#314CD1" offset="0%"/>
            <stop stop-color="#5982F1" offset="100%"/>
        </linearGradient>
        <linearGradient x1="14.066%" y1="88.403%" x2="87.611%" y2="88.403%" id="b">
            <stop stop-color="#5982F1" offset="0%"/>
            <stop stop-color="#314CD1" offset="44.388%"/>
            <stop stop-color="#5982F1" offset="100%"/>
        </linearGradient>
        <linearGradient x1="14.066%" y1="88.403%" x2="87.611%" y2="88.403%" id="c">
            <stop stop-color="#5982F1" offset="0%"/>
            <stop stop-color="#314CD1" offset="51.589%"/>
            <stop stop-color="#5982F1" offset="100%"/>
        </linearGradient>
        <linearGradient x1="28.175%" y1="0%" x2="73.981%" y2="0%" id="d">
            <stop stop-color="#5982F1" offset="0%"/>
            <stop stop-color="#314CD1" offset="48.56%"/>
            <stop stop-color="#5982F1" offset="100%"/>
        </linearGradient>
        <linearGradient x1="3.472%" y1="41.805%" x2="41.004%" y2="41.805%" id="e">
            <stop stop-color="#314CD1" offset="0%"/>
            <stop stop-color="#5982F1" offset="100%"/>
        </linearGradient>
        <linearGradient x1="16.721%" y1="21.465%" x2="75.624%" y2="27.893%" id="f">
            <stop stop-color="#5982F1" offset="0%"/>
            <stop stop-color="#314CD1" offset="49.918%"/>
            <stop stop-color="#5982F1" offset="100%"/>
        </linearGradient>
        <linearGradient x1="-6.568%" y1="0%" x2="33.393%" y2="0%" id="g">
            <stop stop-color="#314CD1" offset="0%"/>
            <stop stop-color="#5982F1" offset="100%"/>
        </linearGradient>
        <linearGradient x1="105.72%" y1="0%" x2="68.891%" y2="0%" id="h">
            <stop stop-color="#314CD1" offset="0%"/>
            <stop stop-color="#5982F1" offset="100%"/>
        </linearGradient>
        <linearGradient x1="-6.568%" y1="0%" x2="100%" y2="0%" id="i">
            <stop stop-color="#314CD1" offset="0%"/>
            <stop stop-color="#5982F1" offset="29.425%"/>
            <stop stop-color="#5982F1" offset="78.349%"/>
            <stop stop-color="#3F60DC" offset="100%"/>
        </linearGradient>
        <linearGradient x1="24.337%" y1="-26.714%" x2="24.337%" y2="29.478%" id="j">
            <stop stop-color="#314CD1" offset="0%"/>
            <stop stop-color="#5982F1" offset="100%"/>
        </linearGradient>
        <linearGradient x1="109.552%" y1="0%" x2="41.955%" y2="0%" id="k">
            <stop stop-color="#314CD1" offset="0%"/>
            <stop stop-color="#5982F1" offset="100%"/>
        </linearGradient>
        <linearGradient x1="-6.568%" y1="0%" x2="27.193%" y2="0%" id="l">
            <stop stop-color="#314CD1" offset="0%"/>
            <stop stop-color="#5982F1" offset="100%"/>
        </linearGradient>
        <linearGradient x1="-12.565%" y1="100%" x2="81.867%" y2="78.473%" id="m">
            <stop stop-color="#314CD1" offset="0%"/>
            <stop stop-color="#5982F1" offset="100%"/>
        </linearGradient>
    </defs>
    <g fill="none" fill-rule="evenodd">
        <path d="M68.346 21.995c-.04-.054-.182-.155-.425-.303a8.847 8.847 0 0 0-2.107-.888 4.786 4.786 0 0 0-1.296-.182c-1.189 0-1.783.397-1.783 1.19 0 .243.064.445.192.606.129.162.318.306.568.434.25.128.563.246.941.353.379.108.818.23 1.317.364.689.188 1.31.393 1.864.615a5.01 5.01 0 0 1 1.408.828c.385.33.682.73.891 1.2.21.471.314 1.036.314 1.696 0 .807-.152 1.49-.456 2.048a3.833 3.833 0 0 1-1.205 1.352c-.5.343-1.074.592-1.722.747a8.608 8.608 0 0 1-2.005.232 11.763 11.763 0 0 1-3.241-.474 12.907 12.907 0 0 1-1.53-.555 8.564 8.564 0 0 1-1.367-.747l1.458-2.886c.054.067.23.195.527.384.297.188.665.376 1.104.565.439.188.928.356 1.469.504.54.148 1.087.222 1.64.222 1.175 0 1.763-.356 1.763-1.07a.9.9 0 0 0-.264-.665 2.48 2.48 0 0 0-.729-.475 7.934 7.934 0 0 0-1.104-.393 136.48 136.48 0 0 1-1.387-.404 12.02 12.02 0 0 1-1.722-.656 4.55 4.55 0 0 1-1.206-.817 2.969 2.969 0 0 1-.709-1.07c-.155-.403-.233-.874-.233-1.412 0-.754.142-1.42.426-1.998a4.315 4.315 0 0 1 1.155-1.463 5.032 5.032 0 0 1 1.691-.899 6.745 6.745 0 0 1 2.036-.302c.5 0 .992.047 1.479.141.486.094.952.215 1.397.363.446.148.861.316 1.246.505.385.188.74.377 1.064.565l-1.459 2.745zM88.725 32.126h-3.242v-5.954c0-.7-.128-1.207-.384-1.524a1.22 1.22 0 0 0-.993-.474c-.216 0-.436.047-.658.141a2.235 2.235 0 0 0-.618.394 3.226 3.226 0 0 0-.891 1.342v6.075h-3.242v-5.954c0-.7-.128-1.207-.384-1.524a1.22 1.22 0 0 0-.993-.474c-.432 0-.854.172-1.266.515-.412.343-.713.797-.902 1.362v6.075h-3.24V21.53h2.916v1.776a3.85 3.85 0 0 1 1.59-1.473c.669-.336 1.449-.504 2.34-.504.446 0 .834.053 1.165.161.33.108.618.256.86.444.244.188.44.407.588.656.149.249.257.515.324.797a4.182 4.182 0 0 1 1.6-1.524c.662-.356 1.419-.534 2.27-.534.675 0 1.218.124 1.63.373.412.249.733.572.962.969.23.397.382.83.456 1.301.074.471.112.929.112 1.373v6.78zM93.87 32.327a4.182 4.182 0 0 1-1.469-.252 3.44 3.44 0 0 1-1.165-.706 3.388 3.388 0 0 1-.77-1.07 3.168 3.168 0 0 1-.283-1.342c0-.525.112-1.002.334-1.433.223-.43.537-.8.942-1.11.405-.31.885-.551 1.439-.726a6.1 6.1 0 0 1 1.843-.263c.446 0 .878.037 1.296.111a4.27 4.27 0 0 1 1.094.333v-.484c0-1.224-.709-1.836-2.127-1.836-.58 0-1.134.097-1.66.292a7.994 7.994 0 0 0-1.662.878l-.952-2.018a8.515 8.515 0 0 1 2.188-1.03 8.284 8.284 0 0 1 2.41-.342c1.607 0 2.85.376 3.728 1.13.877.753 1.316 1.856 1.316 3.31v2.724c0 .323.051.548.152.676.102.128.28.205.537.232v2.725a5.43 5.43 0 0 1-.77.13c-.23.02-.439.031-.628.031-.607 0-1.066-.118-1.377-.353-.31-.236-.507-.569-.588-1l-.06-.483a4.852 4.852 0 0 1-1.692 1.392 4.635 4.635 0 0 1-2.076.484zm.952-2.32c.351 0 .692-.061 1.023-.182.33-.121.604-.283.82-.484.311-.243.466-.498.466-.767v-1.01a5.265 5.265 0 0 0-.921-.252c-.331-.06-.639-.09-.922-.09-.594 0-1.084.134-1.469.403-.385.27-.577.619-.577 1.05 0 .39.148.71.446.958.297.25.675.374 1.134.374zM109.468 24.295c-.783.014-1.492.141-2.127.384-.635.242-1.094.605-1.378 1.09v6.357h-3.24V21.53h2.977v2.14c.365-.713.834-1.272 1.408-1.675.574-.404 1.185-.613 1.833-.626h.324c.068 0 .135.007.203.02v2.906zM118.189 31.56c-.446.189-.955.364-1.53.525a6.369 6.369 0 0 1-1.731.242 4.2 4.2 0 0 1-1.145-.151 2.557 2.557 0 0 1-.942-.484 2.263 2.263 0 0 1-.638-.878c-.155-.363-.233-.8-.233-1.312v-5.53h-1.357V21.53h1.357v-3.37h3.241v3.37h2.168v2.442h-2.168v4.42c0 .35.088.602.264.757a.974.974 0 0 0 .668.232c.243 0 .493-.04.75-.121.256-.08.479-.168.668-.263l.628 2.563z" fill="#5275F2"/>
        <path d="M119.593 24.84c0-.861.162-1.719.486-2.573a7.012 7.012 0 0 1 1.418-2.29 7.201 7.201 0 0 1 2.269-1.635c.891-.417 1.904-.626 3.038-.626 1.35 0 2.522.29 3.515.868.992.578 1.732 1.332 2.218 2.26l-2.552 1.776a2.953 2.953 0 0 0-.618-.938 3.356 3.356 0 0 0-1.732-.929c-.31-.06-.615-.09-.912-.09-.635 0-1.188.127-1.66.383a3.653 3.653 0 0 0-1.176.989c-.31.404-.54.861-.689 1.372a5.543 5.543 0 0 0-.222 1.554c0 .565.087 1.11.263 1.635.176.525.429.989.76 1.392.33.404.729.724 1.195.959.466.235.989.353 1.57.353.297 0 .604-.037.921-.11.318-.075.622-.19.912-.344.29-.155.557-.356.8-.605.243-.25.439-.555.588-.919l2.714 1.595a4.212 4.212 0 0 1-.962 1.412 5.935 5.935 0 0 1-1.469 1.05 7.88 7.88 0 0 1-1.762.646 7.852 7.852 0 0 1-1.823.222c-1.04 0-1.996-.212-2.867-.636a7.25 7.25 0 0 1-2.248-1.685 7.704 7.704 0 0 1-1.459-2.382 7.423 7.423 0 0 1-.516-2.704zm19.568 7.487c-.905 0-1.712-.148-2.42-.444a5.273 5.273 0 0 1-1.793-1.2 5.067 5.067 0 0 1-1.104-1.756 5.898 5.898 0 0 1-.375-2.089c0-.726.125-1.423.375-2.089a5.067 5.067 0 0 1 1.104-1.755 5.395 5.395 0 0 1 1.792-1.211c.71-.303 1.516-.454 2.421-.454.905 0 1.708.15 2.41.454a5.42 5.42 0 0 1 1.783 1.21c.486.505.858 1.09 1.114 1.756a5.76 5.76 0 0 1 .385 2.09c0 .726-.125 1.422-.375 2.088a5.067 5.067 0 0 1-1.104 1.756 5.273 5.273 0 0 1-1.792 1.2c-.71.296-1.516.444-2.421.444zm-2.37-5.489c0 .834.223 1.504.668 2.008.446.505 1.013.757 1.702.757.338 0 .648-.067.932-.202.283-.134.53-.323.74-.565a2.71 2.71 0 0 0 .495-.878c.122-.343.183-.716.183-1.12 0-.834-.223-1.503-.669-2.008a2.148 2.148 0 0 0-1.681-.757 2.213 2.213 0 0 0-1.691.767 2.71 2.71 0 0 0-.497.878 3.332 3.332 0 0 0-.182 1.12zm19.913 5.288h-3.242v-5.954c0-.7-.131-1.207-.395-1.524-.263-.316-.61-.474-1.043-.474-.23 0-.459.047-.689.141a3.027 3.027 0 0 0-1.246.989 2.83 2.83 0 0 0-.394.747v6.075h-3.242V21.53h2.917v1.776c.392-.632.946-1.12 1.662-1.463.715-.343 1.54-.514 2.47-.514.69 0 1.243.124 1.662.373.419.249.743.572.972.969.23.397.382.83.456 1.301.074.471.112.929.112 1.373v6.78zm9.034-.566c-.446.189-.955.364-1.53.525a6.369 6.369 0 0 1-1.731.242 4.2 4.2 0 0 1-1.145-.151 2.557 2.557 0 0 1-.942-.484 2.263 2.263 0 0 1-.638-.878c-.155-.363-.233-.8-.233-1.312v-5.53h-1.357V21.53h1.357v-3.37h3.241v3.37h2.168v2.442h-2.168v4.42c0 .35.088.602.264.757a.974.974 0 0 0 .668.232c.243 0 .493-.04.75-.121.256-.08.48-.168.668-.263l.628 2.563zm8.002-7.265c-.784.014-1.493.141-2.127.384-.635.242-1.094.605-1.378 1.09v6.357h-3.24V21.53h2.977v2.14c.364-.713.834-1.272 1.408-1.675.574-.404 1.185-.613 1.833-.626h.324c.068 0 .135.007.203.02v2.906zm4.137 8.032a4.182 4.182 0 0 1-1.469-.252 3.44 3.44 0 0 1-1.165-.706 3.388 3.388 0 0 1-.77-1.07 3.168 3.168 0 0 1-.283-1.342c0-.525.111-1.002.334-1.433.223-.43.537-.8.942-1.11.405-.31.885-.551 1.439-.726a6.1 6.1 0 0 1 1.843-.263c.446 0 .878.037 1.296.111a4.27 4.27 0 0 1 1.094.333v-.484c0-1.224-.709-1.836-2.127-1.836-.58 0-1.134.097-1.66.292a7.994 7.994 0 0 0-1.662.878l-.952-2.018a8.515 8.515 0 0 1 2.188-1.03 8.284 8.284 0 0 1 2.41-.342c1.607 0 2.85.376 3.728 1.13.877.753 1.316 1.856 1.316 3.31v2.724c0 .323.051.548.152.676.102.128.28.205.537.232v2.725a5.43 5.43 0 0 1-.77.13c-.23.02-.439.031-.628.031-.607 0-1.067-.118-1.377-.353-.31-.236-.507-.569-.588-1l-.06-.483a4.852 4.852 0 0 1-1.692 1.392 4.635 4.635 0 0 1-2.076.484zm.952-2.32c.351 0 .692-.061 1.023-.182.33-.121.604-.283.82-.484.31-.243.466-.498.466-.767v-1.01a5.265 5.265 0 0 0-.921-.252c-.331-.06-.639-.09-.922-.09-.594 0-1.084.134-1.469.403-.385.27-.577.619-.577 1.05 0 .39.148.71.446.958.297.25.675.374 1.134.374zm7.272-3.19c0-.726.128-1.422.385-2.088a5.194 5.194 0 0 1 1.114-1.756 5.273 5.273 0 0 1 1.793-1.2c.709-.296 1.516-.444 2.42-.444 1.23 0 2.263.259 3.1.777.837.518 1.465 1.194 1.884 2.028l-3.16.948c-.419-.672-1.033-1.009-1.844-1.009-.675 0-1.239.25-1.691.747-.452.498-.679 1.164-.679 1.998 0 .417.061.797.183 1.14.121.343.29.636.506.878.216.242.47.43.76.565.29.135.597.202.921.202.406 0 .777-.098 1.115-.293a1.88 1.88 0 0 0 .75-.757l3.16.97c-.392.82-1.017 1.493-1.875 2.017-.857.525-1.9.787-3.13.787-.89 0-1.69-.151-2.4-.454a5.51 5.51 0 0 1-1.803-1.21 5.118 5.118 0 0 1-1.124-1.756 5.76 5.76 0 0 1-.385-2.09zm19.062 4.743c-.446.189-.955.364-1.53.525a6.369 6.369 0 0 1-1.731.242 4.2 4.2 0 0 1-1.145-.151 2.557 2.557 0 0 1-.942-.484 2.263 2.263 0 0 1-.638-.878c-.155-.363-.233-.8-.233-1.312v-5.53h-1.357V21.53h1.357v-3.37h3.241v3.37h2.168v2.442h-2.168v4.42c0 .35.088.602.264.757a.974.974 0 0 0 .668.232c.243 0 .493-.04.75-.121.256-.08.479-.168.668-.263l.628 2.563zm5.45.767a8.493 8.493 0 0 1-2.675-.434c-.878-.289-1.62-.71-2.228-1.26l1.155-1.979a9.62 9.62 0 0 0 1.894 1.03c.614.242 1.205.363 1.772.363.419 0 .743-.074.972-.222a.721.721 0 0 0 .345-.646c0-.282-.145-.508-.436-.676-.29-.168-.8-.346-1.53-.535a21.593 21.593 0 0 1-1.812-.585c-.493-.188-.895-.397-1.205-.626a2.033 2.033 0 0 1-.669-.787c-.135-.296-.202-.646-.202-1.05 0-.537.108-1.028.324-1.472a3.32 3.32 0 0 1 .891-1.13c.378-.31.827-.552 1.347-.727a5.274 5.274 0 0 1 1.692-.262c.796 0 1.542.107 2.238.322.695.216 1.367.606 2.016 1.171l-1.256 1.937c-.608-.417-1.148-.72-1.621-.908a3.71 3.71 0 0 0-1.377-.282c-.352 0-.649.07-.892.212-.243.14-.364.366-.364.676 0 .296.131.518.395.666.263.148.752.31 1.468.484.757.202 1.395.404 1.915.605.52.202.941.428 1.266.677.324.248.56.534.709.857.148.323.222.707.222 1.15 0 1.05-.391 1.884-1.174 2.503-.784.619-1.844.928-3.18.928z" fill="#233562"/>
        <g fill-rule="nonzero">
            <path d="M26.916 6.703a1.665 1.665 0 0 1-1.669-1.662c0-.918.747-1.662 1.669-1.662h6.413c.922 0 1.669.744 1.669 1.662 0 .918-.747 1.662-1.669 1.662h-6.413z" fill="url(#a)" transform="rotate(135 34.174 18.867)"/>
            <path d="M21.082 39.234 39.27 21.046l-2.35-2.35-18.188 18.187 2.35 2.35zm0 0c-.541.541-.895 1.115-1.066 1.69a2.794 2.794 0 0 0-.003 1.605c.168.575.52 1.147 1.06 1.687s1.112.891 1.687 1.06c.533.155 1.07.154 1.604-.003.576-.17 1.15-.525 1.691-1.066l15.469-15.469a1.665 1.665 0 0 1 2.355-.004 1.665 1.665 0 0 1-.005 2.354L28.406 46.557c-.925.924-1.979 1.574-3.108 1.909a6.123 6.123 0 0 1-3.484.006c-1.128-.33-2.18-.976-3.1-1.897-.921-.92-1.567-1.973-1.897-3.1a6.123 6.123 0 0 1 .006-3.484c.334-1.13.985-2.184 1.909-3.108L36.92 18.695c.541-.541.895-1.115 1.065-1.69a2.794 2.794 0 0 0 .003-1.605c-.168-.575-.52-1.147-1.06-1.687-.539-.54-1.111-.891-1.686-1.06a2.794 2.794 0 0 0-1.604.004c-.576.17-1.15.524-1.691 1.065l-21.94 21.94a1.665 1.665 0 0 1-2.354.004 1.665 1.665 0 0 1 .004-2.355l21.94-21.939c.923-.924 1.978-1.574 3.107-1.908a6.123 6.123 0 0 1 3.484-.007c1.127.33 2.18.976 3.1 1.897.92.92 1.567 1.973 1.897 3.1a6.123 6.123 0 0 1-.007 3.484c-.334 1.13-.984 2.184-1.908 3.108L21.082 39.234z" fill="#5982F1"/>
            <path d="M2.271 32.502A1.665 1.665 0 0 1 .603 30.84c0-.918.747-1.662 1.668-1.662h14.217c.922 0 1.669.744 1.669 1.662 0 .918-.747 1.662-1.669 1.662H2.271z" fill="url(#b)" transform="rotate(135 11.95 31.034)"/>
            <path d="M2.545 8.692a1.659 1.659 0 0 1 .666-2.254 1.671 1.671 0 0 1 2.263.663c.267.487.648.867 1.137 1.132.527.287 1.183.442 1.95.442h8.643c.922 0 1.668.744 1.668 1.662 0 .918-.746 1.662-1.668 1.662H8.56c-1.307 0-2.512-.286-3.547-.847a6.123 6.123 0 0 1-2.468-2.46z" fill="url(#c)" transform="rotate(135 19.18 16.033)"/>
            <path d="M32.644 18.164c.921 0 1.668.744 1.668 1.662 0 .918-.747 1.662-1.668 1.662H6.922a1.665 1.665 0 0 1-1.668-1.662c0-.918.747-1.662 1.668-1.662h25.722z" fill="url(#d)" transform="rotate(135 22.532 26.294)"/>
            <path d="M25.411 17.208a1.665 1.665 0 0 1-1.668-1.662c0-.917.747-1.662 1.668-1.662h9.417c.922 0 1.669.745 1.669 1.662 0 .918-.747 1.662-1.669 1.662h-9.417z" fill="url(#e)" transform="rotate(135 31.095 26.295)"/>
            <path d="M22.496 31.247a1.665 1.665 0 0 1-1.668-1.662c0-.918.746-1.662 1.668-1.662h8.36c1.307 0 2.512.286 3.547.848a6.123 6.123 0 0 1 2.468 2.459 1.659 1.659 0 0 1-.666 2.255 1.671 1.671 0 0 1-2.263-.664 2.794 2.794 0 0 0-1.136-1.132c-.528-.286-1.184-.442-1.95-.442h-8.36z" fill="url(#f)" transform="rotate(135 25.8 36.743)"/>
            <path d="M22.56 39.597a1.665 1.665 0 0 1-.004-2.355 1.665 1.665 0 0 1 2.355.005L35.624 47.96c.651.651.653 1.705.004 2.354a1.665 1.665 0 0 1-2.355-.004L22.561 39.597z" fill="#5982F1"/>
            <path d="M21.435 31.967v-3.324l16.457-.004v3.324c-3.603 0-6.755 0-10.326.002L24 31.966l-2.565.001zm0-3.324H24l3.566-.002 10.328-.002v3.324l-16.457.004v-3.324z" fill="url(#g)" transform="rotate(45 13.436 35.56)"/>
            <path d="M22.306 10.049a1.665 1.665 0 0 1-.005-2.355 1.665 1.665 0 0 1 2.355.004l10.6 10.6c.652.652.654 1.707.005 2.356a1.665 1.665 0 0 1-2.355-.005l-10.6-10.6z" fill="#5982F1"/>
            <path d="M1.668 11.249V7.925c3.613 0 6.764.002 10.326.006l3.555.004c1.158.001 1.936.007 2.569.007v3.324c-.635 0-1.414-.006-2.572-.007l-3.556-.004c-3.561-.004-6.71-.006-10.322-.006z" fill="url(#h)" transform="rotate(45 13.436 35.56)"/>
            <path fill="url(#i)" d="m11.05 21.62-.008-3.324 17.461-.042.008 3.324z" transform="rotate(45 13.436 35.56)"/>
            <path d="M7.722 18.301v3.324a6.427 6.427 0 0 1-.403-.01 10.35 10.35 0 0 0-.453-.01c-.766 0-1.422.156-1.95.443-.488.265-.87.645-1.136 1.132-.287.526-.444 1.18-.444 1.942 0 .763.157 1.417.444 1.942.267.487.648.867 1.137 1.133.527.286 1.183.442 1.95.442H18.44v3.324H6.866c-1.307 0-2.512-.286-3.547-.848a6.123 6.123 0 0 1-2.468-2.46C.287 27.626 0 26.426 0 25.123c0-1.302.287-2.503.85-3.533a6.123 6.123 0 0 1 2.47-2.46c1.034-.561 2.24-.847 3.546-.847a13.66 13.66 0 0 1 .739.017c.044.002.078.002.117.002z" fill="url(#j)" transform="rotate(45 13.436 35.56)"/>
            <path d="M6.866 31.963v-3.324a6146.627 6146.627 0 0 1 9.144.006l2.12.001v3.324a2346.479 2346.479 0 0 1-4.667-.004c-2.496-.002-4.396-.003-6.597-.003z" fill="url(#k)" transform="rotate(45 13.436 35.56)"/>
            <path d="M21.443 11.228V7.904a831.148 831.148 0 0 1 3.308.007l.645.002.673.002c2.477.007 4.356.01 6.518.01 1.307 0 2.513.286 3.547.848a6.123 6.123 0 0 1 2.469 2.459c.564 1.03.85 2.231.85 3.533s-.286 2.503-.85 3.534a6.123 6.123 0 0 1-2.469 2.46c-1.034.561-2.24.847-3.547.847h-1.071v-3.324h1.071c.766 0 1.423-.156 1.95-.442.489-.266.87-.646 1.136-1.132.288-.526.444-1.18.444-1.943 0-.763-.156-1.416-.444-1.942a2.794 2.794 0 0 0-1.136-1.132c-.527-.286-1.184-.442-1.95-.442a2177.21 2177.21 0 0 1-7.201-.012l-.645-.002a3306.337 3306.337 0 0 0-3.298-.007z" fill="url(#l)" transform="rotate(45 13.436 35.56)"/>
            <path d="m35.673 12.823 2.93-1.591c.564 1.03.85 2.231.85 3.533s-.286 2.503-.85 3.534a6.123 6.123 0 0 1-2.469 2.46c-1.034.561-2.24.847-3.547.847-.2 0-.335 0-.482-.002l-.124-.001-.157-.001v-3.324h.185l.126.002.452.002c.766 0 1.423-.156 1.95-.442.489-.266.87-.646 1.136-1.132.288-.526.444-1.18.444-1.943 0-.763-.156-1.416-.444-1.942z" fill="url(#m)" transform="rotate(45 13.436 35.56)"/>
        </g>
        <path d="M61.204 38.91a2.318 2.318 0 0 1 1.173-.294c.47 0 .893.11 1.268.333.376.222.671.534.888.937.216.403.324.87.324 1.404 0 .526-.108.996-.324 1.408a2.394 2.394 0 0 1-.892.961c-.379.228-.8.343-1.264.343-.452 0-.848-.099-1.188-.295a2.01 2.01 0 0 1-.768-.752v.961h-.868v-7.042h.868v2.798a2.05 2.05 0 0 1 .783-.761zm2.527 1.352a1.649 1.649 0 0 0-.644-.666 1.786 1.786 0 0 0-.891-.229 1.706 1.706 0 0 0-1.531.909 2.09 2.09 0 0 0-.244 1.023c0 .393.081.738.244 1.033a1.706 1.706 0 0 0 1.53.908c.325 0 .622-.077.892-.233.27-.155.485-.38.644-.675.16-.295.239-.643.239-1.042 0-.394-.08-.736-.239-1.028zm6.773-1.56-3.148 7.67h-.897l1.03-2.513-2.107-5.158h.963l1.64 4.225 1.622-4.225h.897zm6.687 5.214-1.393-2.522h-.391v2.522h-1.631v-6.68h2.737c.528 0 .978.092 1.35.276.372.184.65.436.835.756.184.32.276.677.276 1.07 0 .445-.125.841-.377 1.19-.25.35-.621.597-1.11.743l1.545 2.645H77.19zm-1.784-3.673h1.01c.3 0 .524-.073.673-.22.15-.145.225-.351.225-.618 0-.253-.075-.453-.225-.6-.15-.145-.373-.218-.672-.218h-1.011v1.656zm9.577 1.408h-3.692c.026.33.132.582.32.757a.978.978 0 0 0 .691.261c.407 0 .69-.17.85-.513h1.735c-.089.348-.25.662-.481.942-.233.279-.523.498-.873.656a2.81 2.81 0 0 1-1.173.238 2.86 2.86 0 0 1-1.393-.333 2.372 2.372 0 0 1-.954-.952c-.229-.412-.343-.894-.343-1.446 0-.552.112-1.034.338-1.446.226-.413.542-.73.95-.952.406-.222.874-.333 1.402-.333.515 0 .972.108 1.373.323.4.216.714.524.94.924.225.4.338.865.338 1.398 0 .153-.01.311-.028.476zm-1.641-.904c0-.279-.095-.501-.286-.666a1.055 1.055 0 0 0-.716-.247c-.273 0-.504.079-.691.238-.188.158-.304.383-.348.675h2.041zm2.513-.932c.207-.413.489-.73.845-.952a2.208 2.208 0 0 1 1.192-.333c.35 0 .67.073.959.219.289.146.516.342.682.59v-2.465h1.63v7.042h-1.63v-.761a1.66 1.66 0 0 1-.654.609 2.052 2.052 0 0 1-.987.228c-.439 0-.836-.112-1.192-.338a2.336 2.336 0 0 1-.845-.96c-.206-.416-.31-.897-.31-1.442 0-.546.104-1.025.31-1.437zm3.34.485a1.101 1.101 0 0 0-.826-.352c-.324 0-.6.116-.825.347-.226.232-.339.55-.339.957 0 .406.113.727.339.965.226.238.5.357.825.357.324 0 .6-.117.825-.352.226-.235.339-.555.339-.961 0-.406-.113-.726-.339-.961zm4.258 3.445a2.145 2.145 0 0 1-.93-.704c-.232-.311-.354-.686-.367-1.123h1.736c.025.247.111.436.257.566.147.13.337.195.573.195.241 0 .432-.056.572-.167a.556.556 0 0 0 .21-.461.546.546 0 0 0-.167-.41 1.347 1.347 0 0 0-.41-.266 6.608 6.608 0 0 0-.692-.238 7.541 7.541 0 0 1-1.059-.4 1.955 1.955 0 0 1-.705-.59c-.198-.26-.296-.599-.296-1.018 0-.621.226-1.108.677-1.46.452-.352 1.04-.528 1.765-.528.738 0 1.332.176 1.784.528.451.352.693.842.725 1.47h-1.765a.688.688 0 0 0-.239-.51.841.841 0 0 0-.562-.185.703.703 0 0 0-.477.157c-.121.105-.182.256-.182.452 0 .216.102.384.306.505.203.12.521.25.954.39.432.146.783.285 1.054.419.27.133.504.326.7.58.198.254.296.58.296.98 0 .38-.097.727-.29 1.037-.195.311-.476.559-.845.743-.369.184-.804.276-1.307.276-.49 0-.928-.08-1.316-.238zm7.727-1.209v1.38h-.83c-.592 0-1.053-.144-1.383-.433-.331-.289-.497-.76-.497-1.413v-2.113h-.648v-1.351h.648v-1.294h1.632v1.294h1.068v1.351h-1.068v2.132c0 .159.038.273.114.343.076.07.204.104.382.104h.582zm1.922 1.123a2.442 2.442 0 0 1-.983-.952c-.238-.412-.358-.894-.358-1.446 0-.546.121-1.026.363-1.442.241-.415.572-.734.992-.956.42-.222.89-.333 1.412-.333.521 0 .992.11 1.411.333.42.222.75.54.992.956.242.416.363.896.363 1.442 0 .546-.123 1.026-.367 1.442a2.48 2.48 0 0 1-1.002.956 3 3 0 0 1-1.416.333c-.522 0-.99-.11-1.407-.333zm2.203-1.418c.22-.228.33-.555.33-.98 0-.425-.107-.752-.32-.98a1.034 1.034 0 0 0-.787-.343c-.318 0-.582.113-.792.338-.21.225-.315.554-.315.985 0 .425.103.752.31.98.207.229.466.343.778.343.311 0 .577-.114.796-.343zm7.593-3.088c.372.403.558.957.558 1.66v3.103h-1.622v-2.883c0-.356-.092-.632-.276-.828-.185-.197-.433-.295-.744-.295-.312 0-.56.098-.744.295-.185.196-.277.472-.277.828v2.883h-1.631v-5.31h1.631v.704a1.72 1.72 0 0 1 .668-.556c.28-.137.594-.205.944-.205.623 0 1.12.201 1.493.604zm6.682 2.498h-3.692c.026.33.132.582.32.757a.978.978 0 0 0 .691.261c.407 0 .69-.17.85-.513h1.735c-.089.348-.25.662-.481.942-.232.279-.523.498-.873.656a2.81 2.81 0 0 1-1.173.238 2.86 2.86 0 0 1-1.393-.333 2.372 2.372 0 0 1-.954-.952c-.229-.412-.343-.894-.343-1.446 0-.552.113-1.034.338-1.446.226-.413.542-.73.95-.952.406-.222.874-.333 1.402-.333.515 0 .973.108 1.373.323.4.216.714.524.94.924.226.4.338.865.338 1.398 0 .153-.01.311-.028.476zm-1.64-.904c0-.279-.096-.501-.287-.666a1.055 1.055 0 0 0-.715-.247c-.274 0-.504.079-.692.238-.188.158-.304.383-.348.675h2.041z" fill="#8C8C8C"/>
    </g>
</svg>
