<?xml version="1.0" encoding="UTF-8"?>
<svg width="202px" height="202px" viewBox="0 0 202 202" version="1.1" xmlns="http://www.w3.org/2000/svg" xmlns:xlink="http://www.w3.org/1999/xlink">
    <title>SmartWeave – sam znak Copy</title>
    <defs>
        <linearGradient x1="100%" y1="50%" x2="50%" y2="50%" id="linearGradient-1">
            <stop stop-color="#314CD1" offset="0%"></stop>
            <stop stop-color="#5982F1" offset="100%"></stop>
        </linearGradient>
        <linearGradient x1="14.0658456%" y1="88.4032607%" x2="87.6112016%" y2="88.4032607%" id="linearGradient-2">
            <stop stop-color="#5982F1" offset="0%"></stop>
            <stop stop-color="#314CD1" offset="44.3877192%"></stop>
            <stop stop-color="#5982F1" offset="100%"></stop>
        </linearGradient>
        <linearGradient x1="14.0658456%" y1="88.4032607%" x2="87.6112016%" y2="88.4032607%" id="linearGradient-3">
            <stop stop-color="#5982F1" offset="0%"></stop>
            <stop stop-color="#314CD1" offset="51.5890337%"></stop>
            <stop stop-color="#5982F1" offset="100%"></stop>
        </linearGradient>
        <linearGradient x1="28.1746419%" y1="2.03976935e-23%" x2="73.9808399%" y2="2.03976935e-23%" id="linearGradient-4">
            <stop stop-color="#5982F1" offset="0%"></stop>
            <stop stop-color="#314CD1" offset="48.5595162%"></stop>
            <stop stop-color="#5982F1" offset="100%"></stop>
        </linearGradient>
        <linearGradient x1="3.47172197%" y1="41.8047935%" x2="41.0040384%" y2="41.8047922%" id="linearGradient-5">
            <stop stop-color="#314CD1" offset="0%"></stop>
            <stop stop-color="#5982F1" offset="100%"></stop>
        </linearGradient>
        <linearGradient x1="16.7213397%" y1="46.3805733%" x2="75.6240925%" y2="47.1959008%" id="linearGradient-6">
            <stop stop-color="#5982F1" offset="0%"></stop>
            <stop stop-color="#314CD1" offset="49.9181287%"></stop>
            <stop stop-color="#5982F1" offset="100%"></stop>
        </linearGradient>
        <linearGradient x1="-6.56751402%" y1="0%" x2="33.393177%" y2="0%" id="linearGradient-7">
            <stop stop-color="#314CD1" offset="0%"></stop>
            <stop stop-color="#5982F1" offset="100%"></stop>
        </linearGradient>
        <linearGradient x1="105.719578%" y1="0%" x2="68.8906731%" y2="0%" id="linearGradient-8">
            <stop stop-color="#314CD1" offset="0%"></stop>
            <stop stop-color="#5982F1" offset="100%"></stop>
        </linearGradient>
        <linearGradient x1="-6.56751402%" y1="0%" x2="100%" y2="0%" id="linearGradient-9">
            <stop stop-color="#314CD1" offset="0%"></stop>
            <stop stop-color="#5982F1" offset="29.4252291%"></stop>
            <stop stop-color="#5982F1" offset="78.349175%"></stop>
            <stop stop-color="#3F60DC" offset="100%"></stop>
        </linearGradient>
        <linearGradient x1="24.3373975%" y1="-26.7141732%" x2="24.3373975%" y2="29.4780364%" id="linearGradient-10">
            <stop stop-color="#314CD1" offset="0%"></stop>
            <stop stop-color="#5982F1" offset="100%"></stop>
        </linearGradient>
        <linearGradient x1="109.552028%" y1="0%" x2="41.9548993%" y2="0%" id="linearGradient-11">
            <stop stop-color="#314CD1" offset="0%"></stop>
            <stop stop-color="#5982F1" offset="100%"></stop>
        </linearGradient>
        <linearGradient x1="-6.56751402%" y1="0%" x2="27.1934822%" y2="0%" id="linearGradient-12">
            <stop stop-color="#314CD1" offset="0%"></stop>
            <stop stop-color="#5982F1" offset="100%"></stop>
        </linearGradient>
        <linearGradient x1="16.4133583%" y1="100%" x2="67.1071784%" y2="78.4732961%" id="linearGradient-13">
            <stop stop-color="#314CD1" offset="0%"></stop>
            <stop stop-color="#5982F1" offset="100%"></stop>
        </linearGradient>
    </defs>
    <g id="SmartWeave-–-sam-znak-Copy" stroke="none" stroke-width="1" fill="none" fill-rule="evenodd">
        <g id="Group-5-Copy-2" transform="translate(101.733279, 100.733279) rotate(-315.000000) translate(-101.733279, -100.733279) translate(18.733279, 17.233279)" fill-rule="nonzero">
            <g id="Group-22-Copy-12">
                <path d="M112.940271,28.2313263 C109.074278,28.2313263 105.940271,25.0973196 105.940271,21.2313263 C105.940271,17.3653331 109.074278,14.2313263 112.940271,14.2313263 L139.852628,14.2313263 C143.718621,14.2313263 146.852628,17.3653331 146.852628,21.2313263 C146.852628,25.0973196 143.718621,28.2313263 139.852628,28.2313263 L112.940271,28.2313263 Z" id="Rectangle-4-Copy-15" fill="url(#linearGradient-1)" transform="translate(126.396450, 21.231326) rotate(-270.000000) translate(-126.396450, -21.231326) "></path>
                <path d="M136.728903,77 L28.7999089,77 L28.7999089,91 L136.728903,91 L136.728903,77 Z M136.728903,77 C139.942745,77 142.696157,76.3447574 144.908898,75.1381115 C146.959629,74.0198122 148.559366,72.4200754 149.677665,70.3693439 C150.884311,68.1566031 151.539554,65.4031911 151.539554,62.1893491 C151.539554,58.9755071 150.884311,56.2220952 149.677665,54.0093543 C148.559366,51.9586228 146.959629,50.3588861 144.908898,49.2405867 C142.696157,48.0339408 139.942745,47.3786982 136.728903,47.3786982 L44.9355958,47.3786982 C41.0696026,47.3786982 37.9355958,44.2446915 37.9355958,40.3786982 C37.9355958,36.512705 41.0696026,33.3786982 44.9355958,33.3786982 L136.728903,33.3786982 C142.212884,33.3786982 147.271089,34.5824233 151.611528,36.9493397 C156.023211,39.3551071 159.563145,42.8950409 161.968912,47.3067245 C164.335829,51.6471632 165.539554,56.7053679 165.539554,62.1893491 C165.539554,67.6733303 164.335829,72.731535 161.968912,77.0719737 C159.563145,81.4836573 156.023211,85.0235911 151.611528,87.4293586 C147.271089,89.7962749 142.212884,91 136.728903,91 L28.7999089,91 C25.5860669,91 22.8326549,91.6552426 20.6199141,92.8618885 C18.5691826,93.9801878 16.9694458,95.5799246 15.8511464,97.6306561 C14.6445005,99.8433969 13.989258,102.596809 13.989258,105.810651 C13.989258,109.024493 14.6445005,111.777905 15.8511464,113.990646 C16.9694458,116.041377 18.5691826,117.641114 20.6199141,118.759413 C22.8326549,119.966059 25.5860669,120.621302 28.7999089,120.621302 L158.989258,120.621302 C162.855251,120.621302 165.989258,123.755309 165.989258,127.621302 C165.989258,131.487295 162.855251,134.621302 158.989258,134.621302 L28.7999089,134.621302 C23.3159276,134.621302 18.2577229,133.417577 13.9172843,131.05066 C9.50560068,128.644893 5.96566684,125.104959 3.5598994,120.693275 C1.19298305,116.352837 -0.0107420211,111.294632 -0.0107420211,105.810651 C-0.0107420211,100.32667 1.19298305,95.268465 3.5598994,90.9280263 C5.96566684,86.5163427 9.50560068,82.9764089 13.9172843,80.5706414 C18.2577229,78.2037251 23.3159276,77 28.7999089,77 L136.728903,77 Z" id="Path" fill="#5982F1" transform="translate(82.989258, 84.000000) rotate(-270.000000) translate(-82.989258, -84.000000) "></path>
                <path d="M9.53088793,136.891231 C5.66489468,136.891231 2.53088793,133.757224 2.53088793,129.891231 C2.53088793,126.025238 5.66489468,122.891231 9.53088793,122.891231 L69.1863805,122.891231 C73.0523738,122.891231 76.1863805,126.025238 76.1863805,129.891231 C76.1863805,133.757224 73.0523738,136.891231 69.1863805,136.891231 L9.53088793,136.891231 Z" id="Path" fill="url(#linearGradient-2)" transform="translate(39.358634, 129.891231) rotate(-270.000000) translate(-39.358634, -129.891231) "></path>
                <path d="M10.679094,36.6108186 C8.82821384,33.2166844 10.0792684,28.9647603 13.4734026,27.1138802 C16.8675367,25.263 21.1194609,26.5140546 22.970341,29.9081888 C24.0886404,31.9589203 25.6883771,33.558657 27.7391086,34.6769564 C29.9518495,35.8836023 32.7052614,36.5388449 35.9191034,36.5388449 L72.1905361,36.5388449 C76.0565294,36.5388449 79.1905361,39.6728516 79.1905361,43.5388449 C79.1905361,47.4048381 76.0565294,50.5388449 72.1905361,50.5388449 L35.9191034,50.5388449 C30.4351222,50.5388449 25.3769175,49.3351198 21.0364788,46.9682034 C16.6247952,44.562436 13.0848614,41.0225022 10.679094,36.6108186 Z" id="Path" fill="url(#linearGradient-3)" transform="translate(44.506964, 38.398512) rotate(-270.000000) translate(-44.506964, -38.398512) "></path>
                <path d="M136.976033,76.505022 C140.842027,76.505022 143.976033,79.6390288 143.976033,83.505022 C143.976033,87.3710153 140.842027,90.505022 136.976033,90.505022 L29.0470394,90.505022 C25.1810462,90.505022 22.0470394,87.3710153 22.0470394,83.505022 C22.0470394,79.6390288 25.1810462,76.505022 29.0470394,76.505022 L136.976033,76.505022 Z" id="Path" fill="url(#linearGradient-4)" transform="translate(83.011536, 83.505022) rotate(-270.000000) translate(-83.011536, -83.505022) "></path>
                <path d="M106.628375,72.4788181 C102.762382,72.4788181 99.6283753,69.3448114 99.6283753,65.4788181 C99.6283753,61.6128249 102.762382,58.4788181 106.628375,58.4788181 L146.14304,58.4788181 C150.009033,58.4788181 153.14304,61.6128249 153.14304,65.4788181 C153.14304,69.3448114 150.009033,72.4788181 146.14304,72.4788181 L106.628375,72.4788181 Z" id="Path" fill="url(#linearGradient-5)" transform="translate(126.385708, 65.478818) rotate(-270.000000) translate(-126.385708, -65.478818) "></path>
                <path d="M94.3942992,131.607028 C90.528306,131.607028 87.3942992,128.473022 87.3942992,124.607028 C87.3942992,120.741035 90.528306,117.607028 94.3942992,117.607028 L129.474577,117.607028 C134.958558,117.607028 140.016763,118.810753 144.357202,121.17767 C148.768885,123.583437 152.308819,127.123371 154.714587,131.535055 C156.565467,134.929189 155.314412,139.181113 151.920278,141.031993 C148.526144,142.882873 144.27422,141.631819 142.42334,138.237684 C141.30504,136.186953 139.705303,134.587216 137.654572,133.468917 C135.441831,132.262271 132.688419,131.607028 129.474577,131.607028 L94.3942992,131.607028 Z" id="Rectangle-4-Copy-15" fill="url(#linearGradient-6)" transform="translate(121.482294, 129.747361) rotate(-270.000000) translate(-121.482294, -129.747361) "></path>
                <path d="M95.42848,134.621302 C91.5624868,134.621302 88.42848,131.487295 88.42848,127.621302 C88.42848,123.755309 91.5624868,120.621302 95.42848,120.621302 L159,120.621302 C162.865993,120.621302 166,123.755309 166,127.621302 C166,131.487295 162.865993,134.621302 159,134.621302 L95.42848,134.621302 Z" id="Rectangle-4-Copy-14" fill="#5982F1"></path>
                <path d="M89.9448159,134.639988 L89.9429217,120.639988 L158.998106,120.621302 L159,134.621302 C143.881402,134.621302 130.653309,134.624515 115.669419,134.630644 C112.432415,134.631968 102.454158,134.636352 100.706521,134.637068 C95.8340916,134.639064 92.5936007,134.639988 89.9448159,134.639988 Z M89.9448159,120.639988 C92.5912083,120.639988 95.8301347,120.639064 100.700785,120.637069 C102.448144,120.636353 112.426408,120.63197 115.663692,120.630645 C130.649354,120.624516 143.879285,120.621302 159,120.621302 L159.001894,134.621302 L89.94671,134.639988 L89.9448159,120.639988 Z" id="Rectangle-4-Copy-14" fill="url(#linearGradient-7)"></path>
                <path d="M7,47.3786982 C3.13400675,47.3786982 0,44.2446915 0,40.3786982 C0,36.512705 3.13400675,33.3786982 7,33.3786982 L69.9048452,33.3786982 C73.7708385,33.3786982 76.9048452,36.512705 76.9048452,40.3786982 C76.9048452,44.2446915 73.7708385,47.3786982 69.9048452,47.3786982 L7,47.3786982 Z" id="Path" fill="#5982F1"></path>
                <path d="M7,47.3786982 L7,33.3786982 C22.1594733,33.3786982 35.3793754,33.3873467 50.3264729,33.4038449 C53.5488305,33.4074017 63.4949023,33.4191946 65.2465559,33.4211303 C70.1037577,33.4264981 73.3681175,33.4508044 76.0233689,33.4508044 L76.0233689,47.4508044 C73.3616754,47.4508044 70.0930794,47.4264948 65.2310843,47.4211218 C63.4786756,47.4191852 53.5326163,47.4073923 50.3110201,47.4038364 C35.3687047,47.3873435 22.1537702,47.3786982 7,47.3786982 Z" id="Path" fill="url(#linearGradient-8)"></path>
                <polygon id="Path" fill="url(#linearGradient-9)" points="46.3670559 91.0596058 46.3335166 77.059646 119.601083 76.884121 119.634623 90.8840809"></polygon>
                <path d="M32.4005838,77.0821681 L32.4005838,91.0821681 C32.0608783,91.0821681 31.752078,91.0759288 31.4090911,91.0636641 C31.2395027,91.0575999 30.6583614,91.0331374 30.7127723,91.0353426 C30.1195667,91.0113017 29.6019176,91 28.8106509,91 C25.5968089,91 22.8433969,91.6552426 20.6306561,92.8618885 C18.5799246,93.9801878 16.9801878,95.5799246 15.8618885,97.6306561 C14.6552426,99.8433969 14,102.596809 14,105.810651 C14,109.024493 14.6552426,111.777905 15.8618885,113.990646 C16.9801878,116.041377 18.5799246,117.641114 20.6306561,118.759413 C22.8433969,119.966059 25.5968089,120.621302 28.8106509,120.621302 L77.3792952,120.621302 L77.3792952,134.621302 L28.8106509,134.621302 C23.3266697,134.621302 18.268465,133.417577 13.9280263,131.05066 C9.5163427,128.644893 5.97640887,125.104959 3.57064143,120.693275 C1.20372507,116.352837 0,111.294632 0,105.810651 C0,100.32667 1.20372507,95.268465 3.57064143,90.9280263 C5.97640887,86.5163427 9.5163427,82.9764089 13.9280263,80.5706414 C18.268465,78.2037251 23.3266697,77 28.8106509,77 C29.7988382,77 30.504339,77.015403 31.2796861,77.0468255 C31.267862,77.0463463 31.7918798,77.0684043 31.909389,77.0726062 C32.0949175,77.0792404 32.2398169,77.0821681 32.4005838,77.0821681 Z" id="Path" fill="url(#linearGradient-10)"></path>
                <path d="M28.8106509,134.621302 L28.8106509,120.621302 C38.0525371,120.621302 46.0285568,120.626427 56.5074463,120.637071 C57.8899097,120.638476 59.3756357,120.640028 62.0800007,120.642861 C64.2294365,120.645096 65.7390583,120.646601 67.1774399,120.64791 C70.8083724,120.651214 73.5932511,120.652834 76.0776087,120.652834 L76.0776087,134.652834 C73.5882852,134.652834 70.7995153,134.651212 67.1646988,134.647904 C65.7255836,134.646594 64.2154331,134.645089 62.0654415,134.642853 C59.3609317,134.64002 57.8754519,134.638468 56.4932253,134.637064 C46.0186744,134.626424 38.0470364,134.621302 28.8106509,134.621302 Z" id="Path" fill="url(#linearGradient-11)"></path>
                <path d="M89.9746642,47.2912216 L89.9746642,33.2912216 C92.4266209,33.2912216 95.1870582,33.2957266 98.7949965,33.3049125 C100.222734,33.3085476 101.72195,33.3127251 103.857061,33.3189293 C105.190014,33.3228167 105.190014,33.3228167 106.562679,33.3268315 C107.955474,33.3308888 108.535172,33.3325639 109.389075,33.3349881 C119.782461,33.3644943 127.663684,33.3786982 136.739645,33.3786982 C142.223626,33.3786982 147.281831,34.5824233 151.62227,36.9493397 C156.033953,39.3551071 159.573887,42.8950409 161.979654,47.3067245 C164.346571,51.6471632 165.550296,56.7053679 165.550296,62.1893491 C165.550296,67.6733303 164.346571,72.731535 161.979654,77.0719737 C159.573887,81.4836573 156.033953,85.0235911 151.62227,87.4293586 C147.281831,89.7962749 142.223626,91 136.739645,91 L132.242988,91 L132.242988,77 L136.739645,77 C139.953487,77 142.706899,76.3447574 144.91964,75.1381115 C146.970371,74.0198122 148.570108,72.4200754 149.688407,70.3693439 C150.895053,68.1566031 151.550296,65.4031911 151.550296,62.1893491 C151.550296,58.9755071 150.895053,56.2220952 149.688407,54.0093543 C148.570108,51.9586228 146.970371,50.3588861 144.91964,49.2405867 C142.706899,48.0339408 139.953487,47.3786982 136.739645,47.3786982 C127.64827,47.3786982 119.754837,47.3644723 109.34933,47.3349317 C108.494992,47.3325063 107.914967,47.3308302 106.521815,47.3267719 C105.14901,47.3227566 105.14901,47.3227566 103.81638,47.3188702 C101.682809,47.3126705 100.185057,47.308497 98.7593521,47.3048671 C95.162278,47.2957089 92.4126958,47.2912216 89.9746642,47.2912216 Z" id="Path" fill="url(#linearGradient-12)"></path>
                <path d="M149.688407,54.0093543 L161.979654,47.3067245 C164.346571,51.6471632 165.550296,56.7053679 165.550296,62.1893491 C165.550296,67.6733303 164.346571,72.731535 161.979654,77.0719737 C159.573887,81.4836573 156.033953,85.0235911 151.62227,87.4293586 C147.281831,89.7962749 142.223626,91 136.739645,91 C135.898669,91 135.33104,90.9972871 134.714854,90.9916741 C134.436227,90.9890342 134.436227,90.9890342 134.194178,90.9868453 C133.957252,90.9848547 133.76284,90.9839291 133.53686,90.9839291 L133.53686,76.9839291 C133.804969,76.9839291 134.037881,76.985038 134.311801,76.9873395 C134.573122,76.9897014 134.573122,76.9897014 134.842378,76.992255 C135.417052,76.9974898 135.942276,77 136.739645,77 C139.953487,77 142.706899,76.3447574 144.91964,75.1381115 C146.970371,74.0198122 148.570108,72.4200754 149.688407,70.3693439 C150.895053,68.1566031 151.550296,65.4031911 151.550296,62.1893491 C151.550296,58.9755071 150.895053,56.2220952 149.688407,54.0093543 Z" id="Path" fill="url(#linearGradient-13)"></path>
            </g>
        </g>
    </g>
</svg>